# 3ds Max Wavefront OBJ Exporter v0.97b - (c)2007 guruware
# File Created: 22.09.2022 15:18:11

mtllib Sphere.mtl

#
# object Sphere001
#

v  0.0000 10.2334 -0.0000
v  -0.0000 8.2790 -6.0150
v  -3.5355 8.2790 -4.8663
v  -5.7206 8.2790 -1.8587
v  -5.7206 8.2790 1.8587
v  -3.5355 8.2790 4.8663
v  0.0000 8.2790 6.0150
v  3.5355 8.2790 4.8663
v  5.7206 8.2790 1.8587
v  5.7206 8.2790 -1.8587
v  3.5355 8.2790 -4.8663
v  -0.0000 3.1623 -9.7325
v  -5.7206 3.1623 -7.8738
v  -9.2562 3.1623 -3.0075
v  -9.2562 3.1623 3.0075
v  -5.7206 3.1623 7.8738
v  0.0000 3.1623 9.7325
v  5.7206 3.1623 7.8738
v  9.2562 3.1623 3.0075
v  9.2562 3.1623 -3.0075
v  5.7206 3.1623 -7.8738
v  -0.0000 -3.1623 -9.7325
v  -5.7206 -3.1623 -7.8738
v  -9.2562 -3.1623 -3.0075
v  -9.2562 -3.1623 3.0075
v  -5.7206 -3.1623 7.8738
v  0.0000 -3.1623 9.7325
v  5.7206 -3.1623 7.8738
v  9.2562 -3.1623 3.0075
v  9.2562 -3.1623 -3.0075
v  5.7206 -3.1623 -7.8738
v  -0.0000 -8.2790 -6.0150
v  -3.5355 -8.2790 -4.8663
v  -5.7206 -8.2790 -1.8587
v  -5.7206 -8.2790 1.8587
v  -3.5355 -8.2790 4.8663
v  0.0000 -8.2790 6.0150
v  3.5355 -8.2790 4.8663
v  5.7206 -8.2790 1.8587
v  5.7206 -8.2790 -1.8587
v  3.5355 -8.2790 -4.8663
v  0.0000 -10.2334 -0.0000
# 42 vertices

vn -0.0000 1.0000 0.0000
vn -0.0000 0.7804 -0.6252
vn -0.3675 0.7804 -0.5058
vn -0.5946 0.7804 -0.1932
vn -0.5946 0.7804 0.1932
vn -0.3675 0.7804 0.5058
vn -0.0000 0.7804 0.6252
vn 0.3675 0.7804 0.5058
vn 0.5946 0.7804 0.1932
vn 0.5946 0.7804 -0.1932
vn 0.3675 0.7804 -0.5058
vn -0.0000 0.2925 -0.9563
vn -0.5621 0.2925 -0.7736
vn -0.9095 0.2925 -0.2955
vn -0.9095 0.2925 0.2955
vn -0.5621 0.2925 0.7736
vn -0.0000 0.2925 0.9563
vn 0.5621 0.2925 0.7736
vn 0.9095 0.2925 0.2955
vn 0.9095 0.2925 -0.2955
vn 0.5621 0.2925 -0.7736
vn -0.0000 -0.2924 -0.9563
vn -0.5621 -0.2925 -0.7737
vn -0.9095 -0.2925 -0.2955
vn -0.9095 -0.2925 0.2955
vn -0.5621 -0.2925 0.7736
vn -0.0000 -0.2925 0.9563
vn 0.5621 -0.2925 0.7736
vn 0.9095 -0.2925 0.2955
vn 0.9095 -0.2925 -0.2955
vn 0.5621 -0.2924 -0.7736
vn -0.0000 -0.7804 -0.6252
vn -0.3675 -0.7804 -0.5058
vn -0.5946 -0.7804 -0.1932
vn -0.5946 -0.7804 0.1932
vn -0.3675 -0.7804 0.5058
vn -0.0000 -0.7804 0.6252
vn 0.3675 -0.7804 0.5058
vn 0.5946 -0.7804 0.1932
vn 0.5946 -0.7804 -0.1932
vn 0.3675 -0.7804 -0.5058
vn -0.0000 -1.0000 0.0000
# 42 vertex normals

vt 0.0000 32.1491 0.0000
vt 0.0000 25.7193 0.0000
vt 6.4298 25.7193 0.0000
vt 6.4298 32.1491 0.0000
vt 12.8596 25.7193 0.0000
vt 12.8596 32.1491 0.0000
vt 19.2894 25.7193 0.0000
vt 19.2894 32.1491 0.0000
vt 25.7193 25.7193 0.0000
vt 25.7193 32.1491 0.0000
vt 32.1491 25.7193 0.0000
vt 32.1491 32.1491 0.0000
vt 38.5789 25.7193 0.0000
vt 38.5789 32.1491 0.0000
vt 45.0087 25.7193 0.0000
vt 45.0087 32.1491 0.0000
vt 51.4385 25.7193 0.0000
vt 51.4385 32.1491 0.0000
vt 57.8683 25.7193 0.0000
vt 57.8683 32.1491 0.0000
vt 64.2981 25.7193 0.0000
vt 0.0000 19.2894 0.0000
vt 6.4298 19.2894 0.0000
vt 12.8596 19.2894 0.0000
vt 19.2894 19.2894 0.0000
vt 25.7193 19.2894 0.0000
vt 32.1491 19.2894 0.0000
vt 38.5789 19.2894 0.0000
vt 45.0087 19.2894 0.0000
vt 51.4385 19.2894 0.0000
vt 57.8683 19.2894 0.0000
vt 64.2981 19.2894 0.0000
vt 0.0000 12.8596 0.0000
vt 6.4298 12.8596 0.0000
vt 12.8596 12.8596 0.0000
vt 19.2894 12.8596 0.0000
vt 25.7193 12.8596 0.0000
vt 32.1491 12.8596 0.0000
vt 38.5789 12.8596 0.0000
vt 45.0087 12.8596 0.0000
vt 51.4385 12.8596 0.0000
vt 57.8683 12.8596 0.0000
vt 64.2981 12.8596 0.0000
vt 0.0000 6.4298 0.0000
vt 6.4298 6.4298 0.0000
vt 12.8596 6.4298 0.0000
vt 19.2894 6.4298 0.0000
vt 25.7193 6.4298 0.0000
vt 32.1491 6.4298 0.0000
vt 38.5789 6.4298 0.0000
vt 45.0087 6.4298 0.0000
vt 51.4385 6.4298 0.0000
vt 57.8683 6.4298 0.0000
vt 64.2981 6.4298 0.0000
vt 0.0000 0.0000 0.0000
vt 6.4298 0.0000 0.0000
vt 12.8596 0.0000 0.0000
vt 19.2894 0.0000 0.0000
vt 25.7193 0.0000 0.0000
vt 32.1491 0.0000 0.0000
vt 38.5789 0.0000 0.0000
vt 45.0087 0.0000 0.0000
vt 51.4385 0.0000 0.0000
vt 57.8683 0.0000 0.0000
# 64 texture coords

o Sphere001
g Sphere001
usemtl wire_088144225
s 1
f 1/1/1 2/2/2 3/3/3 
f 1/4/1 3/3/3 4/5/4 
f 1/6/1 4/5/4 5/7/5 
f 1/8/1 5/7/5 6/9/6 
f 1/10/1 6/9/6 7/11/7 
f 1/12/1 7/11/7 8/13/8 
f 1/14/1 8/13/8 9/15/9 
f 1/16/1 9/15/9 10/17/10 
f 1/18/1 10/17/10 11/19/11 
f 1/20/1 11/19/11 2/21/2 
f 2/2/2 12/22/12 13/23/13 3/3/3 
f 3/3/3 13/23/13 14/24/14 4/5/4 
f 4/5/4 14/24/14 15/25/15 5/7/5 
f 5/7/5 15/25/15 16/26/16 6/9/6 
f 6/9/6 16/26/16 17/27/17 7/11/7 
f 7/11/7 17/27/17 18/28/18 8/13/8 
f 8/13/8 18/28/18 19/29/19 9/15/9 
f 9/15/9 19/29/19 20/30/20 10/17/10 
f 10/17/10 20/30/20 21/31/21 11/19/11 
f 11/19/11 21/31/21 12/32/12 2/21/2 
f 12/22/12 22/33/22 23/34/23 13/23/13 
f 13/23/13 23/34/23 24/35/24 14/24/14 
f 14/24/14 24/35/24 25/36/25 15/25/15 
f 15/25/15 25/36/25 26/37/26 16/26/16 
f 16/26/16 26/37/26 27/38/27 17/27/17 
f 17/27/17 27/38/27 28/39/28 18/28/18 
f 18/28/18 28/39/28 29/40/29 19/29/19 
f 19/29/19 29/40/29 30/41/30 20/30/20 
f 20/30/20 30/41/30 31/42/31 21/31/21 
f 21/31/21 31/42/31 22/43/22 12/32/12 
f 22/33/22 32/44/32 33/45/33 23/34/23 
f 23/34/23 33/45/33 34/46/34 24/35/24 
f 24/35/24 34/46/34 35/47/35 25/36/25 
f 25/36/25 35/47/35 36/48/36 26/37/26 
f 26/37/26 36/48/36 37/49/37 27/38/27 
f 27/38/27 37/49/37 38/50/38 28/39/28 
f 28/39/28 38/50/38 39/51/39 29/40/29 
f 29/40/29 39/51/39 40/52/40 30/41/30 
f 30/41/30 40/52/40 41/53/41 31/42/31 
f 31/42/31 41/53/41 32/54/32 22/43/22 
f 42/55/42 33/45/33 32/44/32 
f 42/56/42 34/46/34 33/45/33 
f 42/57/42 35/47/35 34/46/34 
f 42/58/42 36/48/36 35/47/35 
f 42/59/42 37/49/37 36/48/36 
f 42/60/42 38/50/38 37/49/37 
f 42/61/42 39/51/39 38/50/38 
f 42/62/42 40/52/40 39/51/39 
f 42/63/42 41/53/41 40/52/40 
f 42/64/42 32/54/32 41/53/41 
# 30 polygons - 20 triangles

